<svg width="48" height="45" viewBox="0 0 48 45" fill="none" xmlns="http://www.w3.org/2000/svg">
<circle cx="24" cy="21" r="19" transform="rotate(-180 24 21)" fill="#1B1616"/>
<path d="M24.4375 20.7878H31H24.4375ZM17.9884 18.8691L19.3483 17.9595C21.5491 16.4824 22.6502 15.7439 23.5445 16.0803C24.4375 16.4166 24.4375 17.5705 24.4375 19.8782V21.6975C24.4375 24.004 24.4375 25.1567 23.5445 25.4942C22.6502 25.8305 21.5491 25.092 19.3483 23.615L17.9884 22.7053C16.6623 21.8172 16 21.3731 16 20.7878C16 20.2025 16.6623 19.7585 17.9884 18.8691Z" fill="white"/>
<path d="M24.4375 20.7878H31M17.9884 18.8691L19.3483 17.9595C21.5491 16.4824 22.6502 15.7439 23.5445 16.0803C24.4375 16.4166 24.4375 17.5705 24.4375 19.8782V21.6975C24.4375 24.004 24.4375 25.1567 23.5445 25.4942C22.6502 25.8305 21.5491 25.092 19.3483 23.615L17.9884 22.7053C16.6623 21.8172 16 21.3731 16 20.7878C16 20.2025 16.6623 19.7585 17.9884 18.8691Z" stroke="white" stroke-width="2" stroke-linecap="round" stroke-linejoin="round"/>
</svg>
