<svg width="48" height="45" viewBox="0 0 48 45" fill="none" xmlns="http://www.w3.org/2000/svg">
<circle cx="24" cy="24" r="19" fill="#1B1616"/>
<path d="M23.5625 24.2122H17H23.5625ZM30.0116 26.1309L28.6517 27.0405C26.4509 28.5176 25.3498 29.2561 24.4555 28.9197C23.5625 28.5834 23.5625 27.4295 23.5625 25.1218V23.3025C23.5625 20.996 23.5625 19.8433 24.4555 19.5058C25.3498 19.1695 26.4509 19.908 28.6517 21.385L30.0116 22.2947C31.3377 23.1828 32 23.6269 32 24.2122C32 24.7975 31.3377 25.2415 30.0116 26.1309Z" fill="white"/>
<path d="M23.5625 24.2122H17M30.0116 26.1309L28.6517 27.0405C26.4509 28.5176 25.3498 29.2561 24.4555 28.9197C23.5625 28.5834 23.5625 27.4295 23.5625 25.1218V23.3025C23.5625 20.996 23.5625 19.8433 24.4555 19.5058C25.3498 19.1695 26.4509 19.908 28.6517 21.385L30.0116 22.2947C31.3377 23.1828 32 23.6269 32 24.2122C32 24.7975 31.3377 25.2415 30.0116 26.1309Z" stroke="white" stroke-width="2" stroke-linecap="round" stroke-linejoin="round"/>
</svg>
