<svg width="17" height="12" viewBox="0 0 17 12" fill="none" xmlns="http://www.w3.org/2000/svg">
<path d="M9.4375 5.78783L16 5.78783L9.4375 5.78783ZM2.98844 3.86913L4.34828 2.95946C6.54906 1.48244 7.65016 0.743927 8.54453 1.08027C9.4375 1.41661 9.4375 2.57046 9.4375 4.87815V6.6975C9.4375 9.004 9.4375 10.1567 8.54453 10.4942C7.65016 10.8305 6.54906 10.092 4.34828 8.615L2.98844 7.70532C1.66234 6.81719 1 6.37313 1 5.78783C1 5.20252 1.66234 4.75846 2.98844 3.86913Z" fill="white"/>
<path d="M9.4375 5.78783L16 5.78783M2.98844 3.86913L4.34828 2.95946C6.54906 1.48244 7.65016 0.743927 8.54453 1.08027C9.4375 1.41661 9.4375 2.57046 9.4375 4.87815V6.6975C9.4375 9.004 9.4375 10.1567 8.54453 10.4942C7.65016 10.8305 6.54906 10.092 4.34828 8.615L2.98844 7.70532C1.66234 6.81719 1 6.37313 1 5.78783C1 5.20252 1.66234 4.75846 2.98844 3.86913Z" stroke="white" stroke-width="2" stroke-linecap="round" stroke-linejoin="round"/>
</svg>
