<svg width="14" height="18" viewBox="0 0 14 18" fill="none" xmlns="http://www.w3.org/2000/svg">
<path fill-rule="evenodd" clip-rule="evenodd" d="M8.6667 4.83335H5.33336V7.33335C5.33336 7.55437 5.24557 7.76633 5.08929 7.92261C4.93301 8.07889 4.72104 8.16669 4.50003 8.16669C4.27902 8.16669 4.06706 8.07889 3.91077 7.92261C3.75449 7.76633 3.6667 7.55437 3.6667 7.33335V4.83335H2.00003C1.79013 4.83336 1.58796 4.91258 1.43393 5.05517C1.2799 5.19777 1.18536 5.39324 1.1692 5.60252L0.405031 15.5392C0.387466 15.7681 0.417393 15.9982 0.492934 16.215C0.568475 16.4319 0.688 16.6307 0.844015 16.7992C1.00003 16.9676 1.18917 17.102 1.39957 17.194C1.60997 17.2859 1.83709 17.3333 2.0667 17.3334H11.9334C12.163 17.3333 12.3901 17.2859 12.6005 17.194C12.8109 17.102 13 16.9676 13.156 16.7992C13.3121 16.6307 13.4316 16.4319 13.5071 16.215C13.5827 15.9982 13.6126 15.7681 13.595 15.5392L12.8309 5.60252C12.8147 5.39324 12.7202 5.19777 12.5661 5.05517C12.4121 4.91258 12.2099 4.83336 12 4.83335H10.3334V7.33335C10.3334 7.55437 10.2456 7.76633 10.0893 7.92261C9.93301 8.07889 9.72104 8.16669 9.50003 8.16669C9.27902 8.16669 9.06706 8.07889 8.91078 7.92261C8.75449 7.76633 8.6667 7.55437 8.6667 7.33335V4.83335ZM7.00003 2.33335C6.558 2.33335 6.13408 2.50895 5.82152 2.82151C5.50896 3.13407 5.33336 3.55799 5.33336 4.00002V4.83335H3.6667V4.00002C3.6667 3.11597 4.01789 2.26812 4.64301 1.643C5.26813 1.01788 6.11598 0.666687 7.00003 0.666687C7.88409 0.666687 8.73193 1.01788 9.35705 1.643C9.98217 2.26812 10.3334 3.11597 10.3334 4.00002V4.83335H8.6667V4.00002C8.6667 3.55799 8.4911 3.13407 8.17854 2.82151C7.86598 2.50895 7.44206 2.33335 7.00003 2.33335Z" fill="black"/>
</svg>
