<svg width="19" height="19" viewBox="0 0 19 19" fill="none" xmlns="http://www.w3.org/2000/svg">
<path d="M6.72475 11.187H8.26625H8.76625V11.687V16.8905V17.4795L8.18505 17.3839C6.31656 17.0763 4.61828 16.1145 3.39365 14.6701C2.16908 13.2258 1.4979 11.3932 1.5 9.49971C1.50015 5.07245 5.0727 1.5 9.5 1.5C13.9273 1.5 17.4998 5.0724 17.5 9.49962C17.5 9.49975 17.5 9.49987 17.5 9.5L6.72475 11.187ZM6.72475 11.187V10.0173H8.26625H8.76625V9.51725V8.075C8.76625 6.9542 9.03934 6.24076 9.45691 5.80649C9.87112 5.37573 10.5073 5.137 11.4163 5.137C11.9496 5.137 12.335 5.15949 12.6083 5.18431V6.132H11.7545C11.1374 6.132 10.6955 6.44304 10.4357 6.89579C10.1946 7.31598 10.116 7.84107 10.116 8.33225V9.51725V10.0173H10.616H12.5041L6.72475 11.187ZM1 9.5C1 4.81414 4.81414 1 9.5 1C14.1859 1 18 4.81414 18 9.5C18 14.1859 14.1859 18 9.5 18C4.81414 18 1 14.1859 1 9.5Z" fill="white" stroke="white"/>
</svg>
