<svg width="12" height="10" viewBox="0 0 12 10" fill="none" xmlns="http://www.w3.org/2000/svg">
<mask id="path-1-inside-1_33_469" fill="white">
<path d="M8.22917 0.333374C7.1125 0.333374 6.15 0.864103 5.625 1.74327C5.1 0.864103 4.1375 0.333374 3.02083 0.333374C2.21995 0.334339 1.45215 0.652914 0.885847 1.21922C0.31954 1.78553 0.000964832 2.55333 0 3.35421C0 4.84327 0.9375 6.39952 2.78125 7.97869C3.63259 8.70307 4.55177 9.3437 5.52604 9.89171C5.55644 9.90812 5.59045 9.91671 5.625 9.91671C5.65955 9.91671 5.69356 9.90812 5.72396 9.89171C6.69823 9.3437 7.61741 8.70307 8.46875 7.97869C10.3125 6.39952 11.25 4.84327 11.25 3.35421C11.249 2.55333 10.9305 1.78553 10.3642 1.21922C9.79785 0.652914 9.03005 0.334339 8.22917 0.333374ZM5.625 9.46983C4.89583 9.05317 0.416667 6.37869 0.416667 3.35421C0.417494 2.66379 0.692126 2.00189 1.18032 1.5137C1.66852 1.0255 2.33042 0.750868 3.02083 0.750041C4.12031 0.750041 5.04427 1.3391 5.43229 2.28702C5.44799 2.32523 5.47469 2.35791 5.509 2.38091C5.54332 2.40391 5.58369 2.41619 5.625 2.41619C5.66631 2.41619 5.70669 2.40391 5.741 2.38091C5.77531 2.35791 5.80201 2.32523 5.81771 2.28702C6.20573 1.3391 7.12969 0.750041 8.22917 0.750041C8.91958 0.750868 9.58148 1.0255 10.0697 1.5137C10.5579 2.00189 10.8325 2.66379 10.8333 3.35421C10.8333 6.37504 6.35417 9.05525 5.625 9.46983Z"/>
</mask>
<path d="M8.22917 0.333374C7.1125 0.333374 6.15 0.864103 5.625 1.74327C5.1 0.864103 4.1375 0.333374 3.02083 0.333374C2.21995 0.334339 1.45215 0.652914 0.885847 1.21922C0.31954 1.78553 0.000964832 2.55333 0 3.35421C0 4.84327 0.9375 6.39952 2.78125 7.97869C3.63259 8.70307 4.55177 9.3437 5.52604 9.89171C5.55644 9.90812 5.59045 9.91671 5.625 9.91671C5.65955 9.91671 5.69356 9.90812 5.72396 9.89171C6.69823 9.3437 7.61741 8.70307 8.46875 7.97869C10.3125 6.39952 11.25 4.84327 11.25 3.35421C11.249 2.55333 10.9305 1.78553 10.3642 1.21922C9.79785 0.652914 9.03005 0.334339 8.22917 0.333374ZM5.625 9.46983C4.89583 9.05317 0.416667 6.37869 0.416667 3.35421C0.417494 2.66379 0.692126 2.00189 1.18032 1.5137C1.66852 1.0255 2.33042 0.750868 3.02083 0.750041C4.12031 0.750041 5.04427 1.3391 5.43229 2.28702C5.44799 2.32523 5.47469 2.35791 5.509 2.38091C5.54332 2.40391 5.58369 2.41619 5.625 2.41619C5.66631 2.41619 5.70669 2.40391 5.741 2.38091C5.77531 2.35791 5.80201 2.32523 5.81771 2.28702C6.20573 1.3391 7.12969 0.750041 8.22917 0.750041C8.91958 0.750868 9.58148 1.0255 10.0697 1.5137C10.5579 2.00189 10.8325 2.66379 10.8333 3.35421C10.8333 6.37504 6.35417 9.05525 5.625 9.46983Z" fill="black"/>
<path d="M8.22917 0.333374L8.23278 -2.66663H8.22917V0.333374ZM5.625 1.74327L3.0493 3.28137L5.625 7.59465L8.2007 3.28137L5.625 1.74327ZM3.02083 0.333374V-2.66663L3.01722 -2.66662L3.02083 0.333374ZM0 3.35421L-3 3.35059V3.35421H0ZM2.78125 7.97869L0.829714 10.2572L0.837155 10.2635L2.78125 7.97869ZM5.52604 9.89171L4.0553 12.5065L4.07806 12.5193L4.10104 12.5317L5.52604 9.89171ZM5.72396 9.89171L7.14896 12.5317L7.17194 12.5193L7.1947 12.5065L5.72396 9.89171ZM8.46875 7.97869L10.4129 10.2635L10.4203 10.2572L8.46875 7.97869ZM11.25 3.35421H14.25L14.25 3.35059L11.25 3.35421ZM5.625 9.46983L4.13658 12.0746L5.62128 12.923L7.1078 12.0778L5.625 9.46983ZM0.416667 3.35421L-2.58333 3.35061V3.35421H0.416667ZM3.02083 0.750041V-2.24996L3.01724 -2.24996L3.02083 0.750041ZM5.43229 2.28702L2.65589 3.42351L2.65729 3.42692L5.43229 2.28702ZM5.81771 2.28702L8.59271 3.42692L8.59411 3.42351L5.81771 2.28702ZM8.22917 0.750041L8.23276 -2.24996H8.22917V0.750041ZM10.8333 3.35421H13.8333L13.8333 3.35061L10.8333 3.35421ZM8.22917 -2.66663C6.14025 -2.66663 4.15734 -1.65036 3.0493 0.205171L8.2007 3.28137C8.19263 3.29488 8.18158 3.30896 8.16859 3.32137C8.15577 3.33361 8.14486 3.34064 8.13901 3.34382C8.13327 3.34695 8.13547 3.34473 8.14859 3.34147C8.16168 3.33821 8.18798 3.33337 8.22917 3.33337V-2.66663ZM8.2007 0.205171C7.09266 -1.65036 5.10975 -2.66663 3.02083 -2.66663V3.33337C3.06202 3.33337 3.08832 3.33821 3.10141 3.34147C3.11453 3.34473 3.11673 3.34695 3.11099 3.34382C3.10514 3.34064 3.09423 3.33361 3.08141 3.32137C3.06842 3.30896 3.05737 3.29488 3.0493 3.28137L8.2007 0.205171ZM3.01722 -2.66662C1.42194 -2.6647 -0.107442 -2.03013 -1.23547 -0.902099L3.00717 3.34054C3.01175 3.33596 3.01797 3.33338 3.02445 3.33337L3.01722 -2.66662ZM-1.23547 -0.902099C-2.3635 0.225932 -2.99808 1.75532 -3 3.35059L3 3.35782C3.00001 3.35134 3.00258 3.34513 3.00717 3.34054L-1.23547 -0.902099ZM-3 3.35421C-3 6.14622 -1.26688 8.46144 0.829724 10.2572L4.73278 5.70019C3.14188 4.33759 3 3.54032 3 3.35421H-3ZM0.837155 10.2635C1.83531 11.1128 2.91301 11.8639 4.0553 12.5065L6.99678 7.27696C6.19053 6.82346 5.42987 6.2933 4.72535 5.69385L0.837155 10.2635ZM4.10104 12.5317C4.56925 12.7844 5.09295 12.9167 5.625 12.9167V6.91671C6.08795 6.91671 6.54364 7.03184 6.95104 7.25175L4.10104 12.5317ZM5.625 12.9167C6.15705 12.9167 6.68075 12.7844 7.14896 12.5317L4.29896 7.25175C4.70636 7.03184 5.16205 6.91671 5.625 6.91671V12.9167ZM7.1947 12.5065C8.33699 11.8639 9.41469 11.1128 10.4128 10.2635L6.52465 5.69385C5.82013 6.2933 5.05947 6.82346 4.25322 7.27696L7.1947 12.5065ZM10.4203 10.2572C12.5169 8.46144 14.25 6.14622 14.25 3.35421H8.25C8.25 3.54032 8.10812 4.33759 6.51722 5.70019L10.4203 10.2572ZM14.25 3.35059C14.2481 1.75532 13.6135 0.225931 12.4855 -0.902099L8.24283 3.34054C8.24742 3.34513 8.24999 3.35134 8.25 3.35782L14.25 3.35059ZM12.4855 -0.902099C11.3574 -2.03013 9.82806 -2.6647 8.23278 -2.66662L8.22555 3.33337C8.23203 3.33338 8.23825 3.33596 8.24283 3.34054L12.4855 -0.902099ZM7.11342 6.8651C6.82279 6.69903 5.73765 6.0523 4.76331 5.16822C4.27801 4.72787 3.90234 4.3017 3.66402 3.92456C3.42323 3.5435 3.41667 3.36389 3.41667 3.35421H-2.58333C-2.58333 6.24574 -0.554476 8.44485 0.731477 9.61168C2.17902 10.9251 3.69804 11.824 4.13658 12.0746L7.11342 6.8651ZM3.41666 3.3578C3.41654 3.46179 3.37517 3.56149 3.30164 3.63502L-0.940997 -0.607623C-1.99092 0.442302 -2.58155 1.8658 -2.58333 3.35061L3.41666 3.3578ZM3.30164 3.63502C3.22811 3.70855 3.12842 3.74991 3.02443 3.75004L3.01724 -2.24996C1.53242 -2.24818 0.108928 -1.65755 -0.940997 -0.607623L3.30164 3.63502ZM3.02083 3.75004C3.03203 3.75004 2.97259 3.75132 2.88084 3.69284C2.78499 3.63174 2.70098 3.53367 2.65589 3.42351L8.20869 1.15053C7.31687 -1.02815 5.22229 -2.24996 3.02083 -2.24996V3.75004ZM2.65729 3.42692C2.89901 4.01537 3.31021 4.51867 3.83863 4.87287L7.17938 -0.111045C7.63916 0.197154 7.99696 0.635088 8.20729 1.14712L2.65729 3.42692ZM3.83863 4.87287C4.36704 5.22707 4.98884 5.41619 5.625 5.41619V-0.583806C6.17855 -0.583806 6.71959 -0.419244 7.17938 -0.111045L3.83863 4.87287ZM5.625 5.41619C6.26116 5.41619 6.88296 5.22707 7.41137 4.87287L4.07062 -0.111045C4.53041 -0.419244 5.07145 -0.583806 5.625 -0.583806V5.41619ZM7.41137 4.87287C7.93979 4.51867 8.35099 4.01537 8.59271 3.42692L3.04271 1.14712C3.25304 0.635088 3.61084 0.197154 4.07062 -0.111045L7.41137 4.87287ZM8.59411 3.42351C8.54902 3.53367 8.46501 3.63174 8.36916 3.69284C8.27741 3.75132 8.21797 3.75004 8.22917 3.75004V-2.24996C6.02771 -2.24996 3.93313 -1.02815 3.04131 1.15053L8.59411 3.42351ZM8.22557 3.75004C8.12158 3.74991 8.02189 3.70855 7.94836 3.63502L12.191 -0.607623C11.1411 -1.65755 9.71758 -2.24818 8.23276 -2.24996L8.22557 3.75004ZM7.94836 3.63502C7.87483 3.56149 7.83346 3.46179 7.83334 3.3578L13.8333 3.35061C13.8316 1.86579 13.2409 0.442301 12.191 -0.607623L7.94836 3.63502ZM7.83333 3.35421C7.83333 3.36241 7.82719 3.54159 7.58599 3.9233C7.34743 4.30082 6.97144 4.7275 6.48597 5.16829C5.51098 6.05354 4.42533 6.70092 4.1422 6.8619L7.1078 12.0778C7.55384 11.8242 9.07235 10.9241 10.5192 9.61044C11.8042 8.44374 13.8333 6.24398 13.8333 3.35421H7.83333Z" fill="black" mask="url(#path-1-inside-1_33_469)"/>
</svg>
