<svg width="18" height="18" viewBox="0 0 18 18" fill="none" xmlns="http://www.w3.org/2000/svg">
<path fill-rule="evenodd" clip-rule="evenodd" d="M9 4.125C8.08416 4.1252 7.18689 4.38339 6.411 4.86998C5.63511 5.35657 5.01198 6.05188 4.613 6.87625C4.21402 7.70062 4.05533 8.62071 4.1551 9.53111C4.25488 10.4415 4.60909 11.3054 5.17716 12.0238C5.74522 12.7422 6.50416 13.286 7.36702 13.593C8.22989 13.9 9.16178 13.9577 10.0559 13.7595C10.9501 13.5613 11.7703 13.1153 12.4227 12.4725C13.0751 11.8297 13.5332 11.0161 13.7445 10.125H9.75C9.45163 10.125 9.16549 10.0065 8.95451 9.79549C8.74353 9.58451 8.625 9.29837 8.625 9C8.625 8.70163 8.74353 8.41548 8.95451 8.2045C9.16549 7.99352 9.45163 7.875 9.75 7.875H15C15.2984 7.875 15.5845 7.99352 15.7955 8.2045C16.0065 8.41548 16.125 8.70163 16.125 9C16.125 10.6476 15.554 12.2442 14.5092 13.5181C13.4645 14.7921 12.0105 15.6646 10.3948 15.9871C8.77913 16.3097 7.1016 16.0623 5.64778 15.2871C4.19396 14.512 3.0537 13.2569 2.42112 11.7356C1.78853 10.2144 1.7027 8.52087 2.17826 6.94343C2.65381 5.36599 3.66134 4.0021 5.02935 3.08394C6.39735 2.16578 8.04128 1.75009 9.6813 1.90763C11.3213 2.06517 12.856 2.7862 14.0243 3.948C14.129 4.0522 14.2122 4.17602 14.2691 4.31237C14.326 4.44873 14.3555 4.59496 14.3558 4.7427C14.3562 4.89045 14.3275 5.03683 14.2713 5.17348C14.2151 5.31013 14.1326 5.43438 14.0284 5.53912C13.9242 5.64387 13.8004 5.72706 13.664 5.78396C13.5276 5.84085 13.3814 5.87033 13.2337 5.87072C12.9353 5.87149 12.6488 5.7537 12.4373 5.54325C11.5248 4.63356 10.2885 4.12343 9 4.125Z" fill="black"/>
</svg>
