<svg width="204" height="80" viewBox="0 0 204 80" fill="none" xmlns="http://www.w3.org/2000/svg">
<path d="M24.448 62.384C20.3093 62.384 16.64 61.5733 13.44 59.952C10.24 58.3733 7.72267 56.1973 5.888 53.424C4.096 50.608 3.2 47.4293 3.2 43.888C3.2 41.6693 3.584 39.3867 4.352 37.04C4.77867 35.8027 5.39733 34.7147 6.208 33.776C7.01867 32.8373 7.872 32.0693 8.768 31.472C9.664 30.8747 10.432 30.4907 11.072 30.32C11.5413 30.192 11.84 30.128 11.968 30.128C12.2667 30.128 12.16 30.3413 11.648 30.768C11.1787 31.152 10.5813 31.5787 9.856 32.048C9.04533 32.6027 8.10667 33.4347 7.04 34.544C5.97333 35.6533 5.248 37.296 4.864 39.472C4.77867 39.984 4.71467 40.496 4.672 41.008C4.62933 41.52 4.608 42.0107 4.608 42.48C4.608 45.2533 5.22667 47.7067 6.464 49.84C7.744 51.9307 9.38667 53.68 11.392 55.088C13.3973 56.496 15.5733 57.5627 17.92 58.288C20.3093 59.0133 22.592 59.376 24.768 59.376C28.224 59.376 31.424 58.6933 34.368 57.328C37.312 56.0053 40 54.1707 42.432 51.824C44.9067 49.4773 47.1253 46.7893 49.088 43.76C51.0507 40.688 52.7787 37.4453 54.272 34.032C53.9307 34.032 53.44 34.032 52.8 34.032C52.16 33.9893 51.456 33.968 50.688 33.968C49.536 33.968 48.2773 34.0533 46.912 34.224C45.5893 34.352 44.3307 34.672 43.136 35.184C41.984 35.6533 41.0453 36.4 40.32 37.424C40.064 37.7227 39.8293 37.872 39.616 37.872C39.4453 37.872 39.3173 37.7653 39.232 37.552C39.1467 37.3387 39.168 37.104 39.296 36.848C40.32 34.5867 41.728 33.0507 43.52 32.24C45.312 31.4293 47.3173 31.024 49.536 31.024C50.4747 31.024 51.4133 31.088 52.352 31.216C53.3333 31.3013 54.2933 31.4293 55.232 31.6C56 29.7653 56.8533 27.9307 57.792 26.096C58.7307 24.2613 59.648 22.5547 60.544 20.976C61.44 19.3973 62.2507 18.0747 62.976 17.008C63.7013 15.8987 64.2133 15.1733 64.512 14.832C61.7813 13.4667 58.9653 12.208 56.064 11.056C53.1627 9.904 50.1333 9.11467 46.976 8.688C46.336 8.60266 45.696 8.53866 45.056 8.496C44.416 8.45333 43.7973 8.432 43.2 8.432C40.384 8.432 37.8667 8.88 35.648 9.776C33.4293 10.672 31.552 11.824 30.016 13.232C28.48 14.5973 27.3067 16.0693 26.496 17.648C25.6853 19.184 25.28 20.6347 25.28 22C25.28 23.792 25.92 25.072 27.2 25.84C27.968 26.3093 28.736 26.6507 29.504 26.864C30.3147 27.0773 31.0827 27.184 31.808 27.184C33.4293 27.184 34.9013 26.8427 36.224 26.16C37.5467 25.4773 38.592 24.7307 39.36 23.92C40.1707 23.0667 40.576 22.4267 40.576 22C40.576 21.5733 40.704 21.2107 40.96 20.912C41.216 20.5707 41.4293 20.4 41.6 20.4C41.7707 20.4 41.856 20.5493 41.856 20.848C41.856 21.0613 41.792 21.36 41.664 21.744C41.024 23.9627 39.7227 25.6693 37.76 26.864C35.84 28.016 33.8133 28.592 31.68 28.592C30.784 28.592 29.888 28.4853 28.992 28.272C28.1387 28.0587 27.328 27.7387 26.56 27.312C25.152 26.5013 24.1067 25.4773 23.424 24.24C22.7413 22.96 22.4 21.5947 22.4 20.144C22.4 18.48 22.8267 16.7733 23.68 15.024C24.5333 13.232 25.7493 11.6107 27.328 10.16C28.9493 8.66666 30.8907 7.472 33.152 6.576C35.4133 5.63733 37.9733 5.168 40.832 5.168C43.008 5.168 45.44 5.53067 48.128 6.256C51.6693 7.19466 54.9333 8.368 57.92 9.776C60.9067 11.1413 63.3813 12.4427 65.344 13.68C65.6427 13.3387 66.1333 12.8907 66.816 12.336C67.4987 11.7813 68.3733 11.504 69.44 11.504C69.824 11.504 70.272 11.568 70.784 11.696C71.168 11.824 71.4453 12.0373 71.616 12.336C71.8293 12.6347 71.936 12.9333 71.936 13.232C71.936 13.616 71.808 13.808 71.552 13.808C71.3813 13.808 71.1253 13.616 70.784 13.232C70.4853 13.104 70.1653 13.04 69.824 13.04C69.2693 13.04 68.736 13.1893 68.224 13.488C67.712 13.7867 67.264 14.1067 66.88 14.448C67.648 14.832 68.6507 15.28 69.888 15.792C71.168 16.304 72.576 16.816 74.112 17.328C75.648 17.84 77.184 18.2667 78.72 18.608C80.2987 18.9067 81.7493 19.056 83.072 19.056C84.1813 19.056 85.184 18.9067 86.08 18.608C86.976 18.3093 87.616 17.7547 88 16.944C88.3413 16.1333 88.6613 15.728 88.96 15.728C89.1733 15.728 89.28 15.9627 89.28 16.432C89.28 16.56 89.28 16.688 89.28 16.816C89.28 16.944 89.2587 17.072 89.216 17.2C89.0453 18.352 88.3413 19.3333 87.104 20.144C85.8667 20.912 84.3733 21.296 82.624 21.296C82.368 21.296 82.0907 21.296 81.792 21.296C81.536 21.2533 81.2587 21.2107 80.96 21.168C78.4853 20.7413 76.1813 20.1227 74.048 19.312C71.9147 18.5013 70.1227 17.7333 68.672 17.008C67.264 16.2827 66.3467 15.8347 65.92 15.664C64.5547 17.2 63.3387 18.992 62.272 21.04C61.2053 23.088 60.2667 25.1147 59.456 27.12C58.688 29.1253 57.984 30.832 57.344 32.24C58.6667 32.4107 60.096 32.5387 61.632 32.624C63.2107 32.6667 64.6827 32.688 66.048 32.688C66.7307 32.688 67.3493 32.688 67.904 32.688C68.5013 32.6453 69.0133 32.624 69.44 32.624H69.824C70.6773 32.624 71.104 32.7733 71.104 33.072C71.104 33.3707 70.6133 33.648 69.632 33.904C68.992 34.0747 67.904 34.2027 66.368 34.288C64.8747 34.3733 63.3173 34.416 61.696 34.416C60.7147 34.416 59.776 34.3947 58.88 34.352C57.984 34.3093 57.216 34.2453 56.576 34.16C55.68 36.592 54.656 39.1093 53.504 41.712C52.352 44.3147 50.944 46.8533 49.28 49.328C47.6587 51.76 45.696 53.9573 43.392 55.92C41.1307 57.9253 38.4427 59.504 35.328 60.656C32.2133 61.808 28.5867 62.384 24.448 62.384ZM84.783 54.192C84.3137 54.2347 83.7803 54.128 83.183 53.872C82.5857 53.616 82.0523 53.1467 81.583 52.464C81.1563 51.7813 80.943 50.8213 80.943 49.584C80.943 48.56 81.135 47.3227 81.519 45.872C81.007 46.6827 80.3457 47.6853 79.535 48.88C78.7243 50.032 77.8497 51.056 76.911 51.952C76.1003 52.72 75.3323 53.2747 74.607 53.616C73.8817 53.9573 73.2203 54.128 72.623 54.128C71.5137 54.128 70.6177 53.6373 69.935 52.656C69.2523 51.632 68.911 50.3093 68.911 48.688C68.911 46.9813 69.3377 45.04 70.191 42.864C71.0443 40.688 72.431 38.4267 74.351 36.08C75.5883 34.5867 77.0817 33.392 78.831 32.496C80.623 31.5573 82.3723 31.088 84.079 31.088C85.0603 31.088 85.999 31.2587 86.895 31.6C87.791 31.8987 88.5803 32.4107 89.263 33.136C89.5617 33.4347 89.711 33.776 89.711 34.16C89.711 34.416 89.6043 34.6293 89.391 34.8C89.1777 34.9707 88.9003 35.0133 88.559 34.928C88.0897 33.4347 87.087 32.688 85.551 32.688C84.8257 32.688 83.9937 32.9227 83.055 33.392C81.6043 34.16 80.0897 35.4187 78.511 37.168C76.975 38.9173 75.631 40.7307 74.479 42.608C74.3083 42.864 74.031 43.3547 73.647 44.08C73.3057 44.8053 72.9643 45.616 72.623 46.512C72.2817 47.408 72.047 48.2827 71.919 49.136C71.8763 49.392 71.855 49.584 71.855 49.712C71.855 49.7973 71.855 49.9467 71.855 50.16C71.855 51.568 72.3883 52.272 73.455 52.272C74.735 52.272 76.1857 51.3333 77.807 49.456C78.9163 48.0907 79.919 46.6613 80.815 45.168C81.711 43.6747 82.6283 42.0747 83.567 40.368C84.207 39.216 84.8043 38.256 85.359 37.488C85.9137 36.72 86.703 36.336 87.727 36.336C88.1963 36.336 88.6657 36.4 89.135 36.528C89.6043 36.656 90.095 36.6773 90.607 36.592C90.2657 36.9333 89.7963 37.5733 89.199 38.512C88.6443 39.4507 88.047 40.5173 87.407 41.712C86.767 42.9067 86.191 44.1227 85.679 45.36C85.167 46.5973 84.8043 47.664 84.591 48.56C84.5483 48.816 84.4843 49.1787 84.399 49.648C84.3563 50.1173 84.335 50.4587 84.335 50.672C84.335 51.8667 84.6763 52.464 85.359 52.464C86.0417 52.464 86.767 52.0587 87.535 51.248C88.3457 50.4373 89.135 49.4347 89.903 48.24C90.671 47.0453 91.375 45.8507 92.015 44.656C92.655 43.4187 93.167 42.416 93.551 41.648C93.7217 41.2213 93.9777 41.008 94.319 41.008C94.5323 41.008 94.639 41.1573 94.639 41.456C94.639 41.584 94.575 41.8187 94.447 42.16C93.935 43.2267 93.3163 44.4427 92.591 45.808C91.8657 47.1307 91.0763 48.432 90.223 49.712C89.3697 50.9493 88.4737 51.9947 87.535 52.848C86.639 53.6587 85.7217 54.1067 84.783 54.192ZM94.931 54.256C92.8403 54.256 91.347 53.7227 90.451 52.656C89.5977 51.5467 89.171 50.3947 89.171 49.2C89.171 48.2187 89.4057 47.3227 89.875 46.512C90.387 45.7013 90.9843 45.2747 91.667 45.232C92.5203 43.568 93.4377 41.7547 94.419 39.792C95.443 37.8293 96.3817 35.9307 97.235 34.096C97.8323 32.8587 98.579 31.664 99.475 30.512C100.414 29.36 101.438 28.6987 102.547 28.528H103.187C103.528 28.528 103.827 28.5493 104.083 28.592C104.382 28.6347 104.68 28.72 104.979 28.848C105.448 29.0613 105.683 29.3813 105.683 29.808C105.683 30.064 105.534 30.192 105.235 30.192C105.107 30.192 104.936 30.128 104.723 30C104.211 29.7867 103.763 29.68 103.379 29.68C103.123 29.68 102.888 29.744 102.675 29.872C101.864 30.2987 101.288 30.896 100.947 31.664C100.648 32.432 100.499 33.2427 100.499 34.096C100.499 34.7787 100.563 35.4827 100.691 36.208C100.862 36.8907 101.054 37.5093 101.267 38.064C101.736 39.2587 102.227 40.432 102.739 41.584C103.294 42.736 103.571 43.9733 103.571 45.296C103.571 46.576 103.144 47.9413 102.291 49.392C101.438 50.8 100.35 51.9307 99.027 52.784L99.475 52.848C99.6883 52.8907 99.8377 52.912 99.923 52.912C100.008 52.912 100.072 52.912 100.115 52.912C101.096 52.912 102.014 52.6347 102.867 52.08C103.763 51.4827 104.552 50.7573 105.235 49.904C105.918 49.0507 106.686 47.856 107.539 46.32C108.435 44.784 109.288 43.1627 110.099 41.456C110.227 41.2427 110.376 41.136 110.547 41.136C110.76 41.136 110.91 41.2213 110.995 41.392C111.123 41.52 111.144 41.6907 111.059 41.904C110.504 43.0987 109.864 44.4 109.139 45.808C108.456 47.1733 107.667 48.496 106.771 49.776C105.875 51.0133 104.83 52.0373 103.635 52.848C102.483 53.616 101.182 54 99.731 54C99.3897 54 99.027 53.9787 98.643 53.936C98.259 53.8933 97.875 53.808 97.491 53.68C97.0643 53.8507 96.6163 53.9787 96.147 54.064C95.7203 54.192 95.315 54.256 94.931 54.256ZM96.851 52.336C97.5763 51.7387 98.2163 50.864 98.771 49.712C99.3683 48.56 99.667 47.0453 99.667 45.168C99.667 43.504 99.4963 41.7333 99.155 39.856C98.8137 37.9787 98.643 36.3147 98.643 34.864C98.643 34.5653 98.643 34.3093 98.643 34.096C98.6857 33.84 98.7283 33.6053 98.771 33.392C98.2163 34.544 97.5763 35.888 96.851 37.424C96.1257 38.9173 95.4003 40.368 94.675 41.776C93.9497 43.184 93.331 44.3787 92.819 45.36C92.819 45.36 92.9257 45.3813 93.139 45.424C93.395 45.424 93.6297 45.5733 93.843 45.872C94.0563 46.128 94.1417 46.6613 94.099 47.472C94.0563 48.5387 94.291 49.5413 94.803 50.48C95.3577 51.376 96.0403 51.9947 96.851 52.336ZM94.419 53.232C94.675 53.232 94.9097 53.2107 95.123 53.168C95.3363 53.0827 95.5283 53.0187 95.699 52.976C95.059 52.5067 94.483 51.888 93.971 51.12C93.5017 50.3093 93.2243 49.2853 93.139 48.048C92.371 48.8587 91.987 49.7333 91.987 50.672C91.987 51.3547 92.2003 51.952 92.627 52.464C93.0537 52.976 93.651 53.232 94.419 53.232ZM103.752 54.512C105.544 50.8427 107.401 47.0027 109.321 42.992C111.283 38.9387 113.289 34.864 115.337 30.768C117.385 26.672 119.411 22.768 121.417 19.056C122.142 17.776 122.803 16.7733 123.401 16.048C124.041 15.3227 124.873 14.96 125.897 14.96C126.281 14.96 126.729 15.024 127.241 15.152C127.753 15.28 128.243 15.3013 128.713 15.216C128.158 15.8133 127.39 16.8587 126.409 18.352C125.47 19.8453 124.403 21.6373 123.208 23.728C122.057 25.8187 120.819 28.08 119.497 30.512C118.217 32.9013 116.937 35.3333 115.657 37.808C114.419 40.24 113.267 42.5227 112.201 44.656C113.054 43.5467 113.929 42.5013 114.825 41.52C115.721 40.5387 116.595 39.6853 117.449 38.96C118.387 38.1067 119.561 37.2107 120.969 36.272C122.419 35.3333 123.849 34.5227 125.257 33.84C126.707 33.1573 127.859 32.816 128.713 32.816C129.011 32.816 129.225 32.8373 129.353 32.88C129.353 32.88 129.118 33.3067 128.649 34.16C128.179 35.0133 127.582 36.1013 126.857 37.424C126.174 38.7467 125.449 40.176 124.681 41.712C123.955 43.248 123.315 44.72 122.76 46.128C122.206 47.4933 121.843 48.624 121.673 49.52C121.545 50.2027 121.481 50.7787 121.481 51.248C121.481 51.9307 121.609 52.4 121.865 52.656C122.121 52.8693 122.398 52.976 122.697 52.976C123.422 52.976 124.211 52.528 125.065 51.632C125.918 50.736 126.75 49.648 127.561 48.368C128.371 47.0453 129.097 45.7653 129.737 44.528C130.419 43.2907 130.931 42.3307 131.273 41.648C131.529 41.1787 131.785 40.944 132.041 40.944C132.297 40.944 132.425 41.1147 132.425 41.456C132.425 41.6267 132.361 41.8827 132.233 42.224C131.678 43.3333 131.038 44.592 130.313 46C129.63 47.3653 128.841 48.688 127.945 49.968C127.091 51.2053 126.131 52.2293 125.065 53.04C124.041 53.8507 122.931 54.256 121.737 54.256C120.883 54.256 120.009 53.9573 119.113 53.36C118.217 52.7627 117.769 51.6747 117.769 50.096C117.769 49.6267 117.811 49.136 117.897 48.624C117.982 48.0693 118.131 47.4507 118.345 46.768C118.601 45.9147 119.027 44.976 119.625 43.952C120.222 42.8853 120.99 41.5627 121.929 39.984C122.355 39.2587 122.569 38.6827 122.569 38.256C122.569 37.744 122.313 37.488 121.801 37.488C121.374 37.488 120.798 37.7013 120.073 38.128C119.347 38.5547 118.43 39.3013 117.321 40.368C116.254 41.392 114.931 42.8853 113.353 44.848C111.774 46.8107 110.089 49.5627 108.297 53.104C107.998 53.6587 107.657 53.9573 107.273 54C106.931 54 106.462 54.0213 105.864 54.064C105.48 54.1067 105.096 54.128 104.712 54.128C104.328 54.1707 104.008 54.2987 103.752 54.512ZM138.44 28.016C137.8 28.016 137.266 27.8027 136.84 27.376C136.456 26.9067 136.264 26.352 136.264 25.712C136.264 24.9013 136.584 24.1973 137.224 23.6C137.864 23.0027 138.568 22.704 139.336 22.704C140.018 22.704 140.573 22.9173 141 23.344C141.426 23.7707 141.64 24.2827 141.64 24.88C141.64 25.6907 141.32 26.416 140.68 27.056C140.04 27.696 139.293 28.016 138.44 28.016ZM133.256 54C131.677 54 130.568 53.552 129.928 52.656C129.288 51.7173 128.968 50.6507 128.968 49.456C128.968 48.816 129.032 48.176 129.16 47.536C129.33 46.8533 129.522 46.2347 129.736 45.68L134.024 34.736C134.152 34.3947 134.216 34.096 134.216 33.84C134.216 33.4133 134.109 33.0507 133.896 32.752C133.682 32.4107 133.533 32.176 133.448 32.048L136.968 31.92C137.608 31.8773 138.056 31.9627 138.312 32.176C138.61 32.3467 138.76 32.56 138.76 32.816C138.76 33.072 138.61 33.5413 138.312 34.224L133 46.704C133 46.704 132.872 46.9813 132.616 47.536C132.402 48.048 132.274 48.3893 132.232 48.56C132.104 49.2 132.018 49.6053 131.976 49.776C131.933 49.9467 131.911 50.0533 131.911 50.096C131.911 50.1387 131.911 50.3093 131.911 50.608C131.911 51.1627 132.04 51.632 132.296 52.016C132.594 52.4 133.085 52.592 133.768 52.592C134.194 52.592 134.685 52.464 135.24 52.208C135.794 51.952 136.2 51.696 136.456 51.44C137.522 50.3307 138.568 48.88 139.592 47.088C140.658 45.2533 141.64 43.44 142.536 41.648C142.706 41.2213 142.92 41.008 143.176 41.008C143.389 41.008 143.496 41.1573 143.496 41.456C143.496 41.6267 143.432 41.8827 143.304 42.224C142.877 43.12 142.344 44.2293 141.704 45.552C141.064 46.8747 140.296 48.1973 139.4 49.52C138.546 50.8 137.608 51.8667 136.584 52.72C135.56 53.5733 134.45 54 133.256 54ZM145.594 54C143.972 54 142.777 53.4667 142.01 52.4C141.242 51.2907 140.858 49.9467 140.858 48.368C140.858 46.448 141.306 44.4427 142.202 42.352C143.055 40.3893 144.143 38.5973 145.466 36.976C146.788 35.3547 148.218 34.0533 149.754 33.072C151.29 32.048 152.783 31.536 154.234 31.536C155.855 31.536 157.05 32.0693 157.818 33.136C158.586 34.2027 158.97 35.5467 158.97 37.168C158.97 39.1307 158.522 41.136 157.626 43.184C157.114 44.336 156.388 45.616 155.45 47.024C154.511 48.3893 153.444 49.648 152.25 50.8C152.506 51.2693 152.868 51.6747 153.338 52.016C153.807 52.3147 154.447 52.464 155.258 52.464C156.282 52.464 157.242 52.0373 158.138 51.184C159.076 50.3307 159.93 49.3067 160.698 48.112C161.466 46.8747 162.148 45.6373 162.746 44.4C163.343 43.1627 163.834 42.16 164.218 41.392C164.346 41.136 164.559 41.008 164.858 41.008C165.028 41.008 165.156 41.0933 165.242 41.264C165.327 41.392 165.306 41.6053 165.178 41.904C164.922 42.544 164.495 43.504 163.898 44.784C163.3 46.0213 162.575 47.3227 161.722 48.688C160.868 50.0107 159.887 51.1413 158.778 52.08C157.668 53.0187 156.431 53.488 155.066 53.488C154.127 53.488 153.316 53.3387 152.634 53.04C151.951 52.6987 151.396 52.2933 150.97 51.824C150.074 52.5067 149.178 53.04 148.282 53.424C147.386 53.808 146.49 54 145.594 54ZM146.554 52.592C147.706 52.592 148.943 52.0373 150.266 50.928C149.924 50.416 149.668 49.8827 149.498 49.328C149.327 48.7733 149.242 48.2613 149.242 47.792C149.242 47.024 149.412 46.3627 149.754 45.808C150.138 45.2533 150.714 44.976 151.482 44.976C152.036 44.976 152.484 45.1893 152.826 45.616C153.21 46 153.402 46.448 153.402 46.96C153.402 47.088 153.38 47.216 153.338 47.344C153.338 47.4293 153.316 47.536 153.274 47.664C153.999 46.6827 154.682 45.5307 155.322 44.208C156.73 41.1787 157.434 38.6827 157.434 36.72C157.434 35.7387 157.242 34.9707 156.858 34.416C156.474 33.8613 155.898 33.584 155.13 33.584C154.234 33.584 153.252 33.968 152.186 34.736C151.162 35.504 150.159 36.528 149.178 37.808C148.239 39.088 147.407 40.5173 146.682 42.096C145.999 43.5467 145.444 44.9547 145.018 46.32C144.634 47.6427 144.442 48.7947 144.442 49.776C144.442 50.6293 144.612 51.312 144.954 51.824C145.295 52.336 145.828 52.592 146.554 52.592ZM157.879 54.512C159.415 51.3973 160.887 48.3253 162.295 45.296C163.746 42.224 165.218 39.3013 166.711 36.528C167.564 34.992 168.268 33.9253 168.823 33.328C169.42 32.688 170.21 32.368 171.191 32.368C171.532 32.368 171.895 32.432 172.279 32.56C172.663 32.6453 173.047 32.688 173.431 32.688C173.687 32.688 173.879 32.6667 174.007 32.624C173.41 32.9653 172.642 33.8187 171.703 35.184C170.764 36.5067 169.804 38.0427 168.823 39.792C167.842 41.5413 166.967 43.184 166.199 44.72C167.01 43.7387 167.842 42.7573 168.695 41.776C169.591 40.7947 170.572 39.856 171.639 38.96C172.663 38.064 173.879 37.1467 175.287 36.208C176.738 35.2267 178.146 34.416 179.511 33.776C180.876 33.136 181.964 32.816 182.775 32.816C183.074 32.816 183.287 32.8373 183.415 32.88C183.415 32.88 183.18 33.3067 182.711 34.16C182.242 34.9707 181.644 36.0587 180.919 37.424C180.236 38.7467 179.532 40.176 178.807 41.712C178.082 43.2053 177.42 44.656 176.823 46.064C176.268 47.4293 175.906 48.5813 175.735 49.52C175.607 50.0747 175.543 50.5867 175.543 51.056C175.543 51.7387 175.671 52.1867 175.927 52.4C176.183 52.6133 176.46 52.72 176.759 52.72C177.57 52.72 178.423 52.2933 179.319 51.44C180.215 50.544 181.068 49.456 181.879 48.176C182.732 46.896 183.479 45.6587 184.119 44.464C184.802 43.2267 185.292 42.288 185.591 41.648C185.762 41.3067 185.89 41.1147 185.975 41.072C186.06 40.9867 186.188 40.944 186.359 40.944C186.615 40.944 186.743 41.1147 186.743 41.456C186.743 41.6693 186.679 41.904 186.551 42.16C186.039 43.1413 185.42 44.3147 184.695 45.68C184.012 47.0453 183.223 48.3893 182.327 49.712C181.431 50.992 180.45 52.08 179.383 52.976C178.316 53.8293 177.164 54.256 175.927 54.256C175.074 54.256 174.178 53.9573 173.239 53.36C172.343 52.7627 171.895 51.6533 171.895 50.032C171.895 49.5627 171.938 49.072 172.023 48.56C172.108 48.0053 172.258 47.408 172.471 46.768C172.812 45.9147 173.218 44.9973 173.687 44.016C174.156 43.0347 174.924 41.6907 175.991 39.984C176.29 39.5147 176.46 39.152 176.503 38.896C176.588 38.64 176.631 38.4267 176.631 38.256C176.631 37.744 176.396 37.488 175.927 37.488C175.543 37.488 174.967 37.7013 174.199 38.128C173.474 38.5547 172.556 39.3013 171.447 40.368C170.38 41.392 169.1 42.8427 167.607 44.72C166.156 46.5973 164.471 49.3707 162.551 53.04C162.252 53.5947 161.911 53.8933 161.527 53.936C161.186 53.9787 160.695 54.0213 160.055 54.064C159.628 54.1067 159.223 54.128 158.839 54.128C158.455 54.1707 158.135 54.2987 157.879 54.512ZM186.931 54.256C184.84 54.256 183.347 53.7227 182.451 52.656C181.598 51.5467 181.171 50.3947 181.171 49.2C181.171 48.2187 181.406 47.3227 181.875 46.512C182.387 45.7013 182.984 45.2747 183.667 45.232C184.52 43.568 185.438 41.7547 186.419 39.792C187.443 37.8293 188.382 35.9307 189.235 34.096C189.832 32.8587 190.579 31.664 191.475 30.512C192.414 29.36 193.438 28.6987 194.547 28.528H195.187C195.528 28.528 195.827 28.5493 196.083 28.592C196.382 28.6347 196.68 28.72 196.979 28.848C197.448 29.0613 197.683 29.3813 197.683 29.808C197.683 30.064 197.534 30.192 197.235 30.192C197.107 30.192 196.936 30.128 196.723 30C196.211 29.7867 195.763 29.68 195.379 29.68C195.123 29.68 194.888 29.744 194.675 29.872C193.864 30.2987 193.288 30.896 192.947 31.664C192.648 32.432 192.499 33.2427 192.499 34.096C192.499 34.7787 192.563 35.4827 192.691 36.208C192.862 36.8907 193.054 37.5093 193.267 38.064C193.736 39.2587 194.227 40.432 194.739 41.584C195.294 42.736 195.571 43.9733 195.571 45.296C195.571 46.576 195.144 47.9413 194.291 49.392C193.438 50.8 192.35 51.9307 191.027 52.784L191.475 52.848C191.688 52.8907 191.838 52.912 191.923 52.912C192.008 52.912 192.072 52.912 192.115 52.912C193.096 52.912 194.014 52.6347 194.867 52.08C195.763 51.4827 196.552 50.7573 197.235 49.904C197.918 49.0507 198.686 47.856 199.539 46.32C200.435 44.784 201.288 43.1627 202.099 41.456C202.227 41.2427 202.376 41.136 202.547 41.136C202.76 41.136 202.91 41.2213 202.995 41.392C203.123 41.52 203.144 41.6907 203.059 41.904C202.504 43.0987 201.864 44.4 201.139 45.808C200.456 47.1733 199.667 48.496 198.771 49.776C197.875 51.0133 196.83 52.0373 195.635 52.848C194.483 53.616 193.182 54 191.731 54C191.39 54 191.027 53.9787 190.643 53.936C190.259 53.8933 189.875 53.808 189.491 53.68C189.064 53.8507 188.616 53.9787 188.147 54.064C187.72 54.192 187.315 54.256 186.931 54.256ZM188.851 52.336C189.576 51.7387 190.216 50.864 190.771 49.712C191.368 48.56 191.667 47.0453 191.667 45.168C191.667 43.504 191.496 41.7333 191.155 39.856C190.814 37.9787 190.643 36.3147 190.643 34.864C190.643 34.5653 190.643 34.3093 190.643 34.096C190.686 33.84 190.728 33.6053 190.771 33.392C190.216 34.544 189.576 35.888 188.851 37.424C188.126 38.9173 187.4 40.368 186.675 41.776C185.95 43.184 185.331 44.3787 184.819 45.36C184.819 45.36 184.926 45.3813 185.139 45.424C185.395 45.424 185.63 45.5733 185.843 45.872C186.056 46.128 186.142 46.6613 186.099 47.472C186.056 48.5387 186.291 49.5413 186.803 50.48C187.358 51.376 188.04 51.9947 188.851 52.336ZM186.419 53.232C186.675 53.232 186.91 53.2107 187.123 53.168C187.336 53.0827 187.528 53.0187 187.699 52.976C187.059 52.5067 186.483 51.888 185.971 51.12C185.502 50.3093 185.224 49.2853 185.139 48.048C184.371 48.8587 183.987 49.7333 183.987 50.672C183.987 51.3547 184.2 51.952 184.627 52.464C185.054 52.976 185.651 53.232 186.419 53.232Z" fill="white"/>
<path d="M73.408 58.696V67H72.316V60.808L69.556 67H68.788L66.016 60.796V67H64.924V58.696H66.1L69.172 65.56L72.244 58.696H73.408ZM80.9239 60.424L76.9639 70.096H75.8359L77.1319 66.928L74.4799 60.424H75.6919L77.7559 65.752L79.7959 60.424H80.9239ZM86.3129 66.112H89.2409V67H85.2209V58.636H86.3129V66.112ZM90.9646 59.356C90.7566 59.356 90.5806 59.284 90.4366 59.14C90.2926 58.996 90.2206 58.82 90.2206 58.612C90.2206 58.404 90.2926 58.228 90.4366 58.084C90.5806 57.94 90.7566 57.868 90.9646 57.868C91.1646 57.868 91.3326 57.94 91.4686 58.084C91.6126 58.228 91.6846 58.404 91.6846 58.612C91.6846 58.82 91.6126 58.996 91.4686 59.14C91.3326 59.284 91.1646 59.356 90.9646 59.356ZM91.4926 60.424V67H90.4006V60.424H91.4926ZM96.0297 61.324H94.6497V67H93.5577V61.324H92.7057V60.424H93.5577V59.956C93.5577 59.22 93.7457 58.684 94.1217 58.348C94.5057 58.004 95.1177 57.832 95.9577 57.832V58.744C95.4777 58.744 95.1377 58.84 94.9377 59.032C94.7457 59.216 94.6497 59.524 94.6497 59.956V60.424H96.0297V61.324ZM103.303 63.46C103.303 63.668 103.291 63.888 103.267 64.12H98.0109C98.0509 64.768 98.2709 65.276 98.6709 65.644C99.0789 66.004 99.5709 66.184 100.147 66.184C100.619 66.184 101.011 66.076 101.323 65.86C101.643 65.636 101.867 65.34 101.995 64.972H103.171C102.995 65.604 102.643 66.12 102.115 66.52C101.587 66.912 100.931 67.108 100.147 67.108C99.5229 67.108 98.9629 66.968 98.4669 66.688C97.9789 66.408 97.5949 66.012 97.3149 65.5C97.0349 64.98 96.8949 64.38 96.8949 63.7C96.8949 63.02 97.0309 62.424 97.3029 61.912C97.5749 61.4 97.9549 61.008 98.4429 60.736C98.9389 60.456 99.5069 60.316 100.147 60.316C100.771 60.316 101.323 60.452 101.803 60.724C102.283 60.996 102.651 61.372 102.907 61.852C103.171 62.324 103.303 62.86 103.303 63.46ZM102.175 63.232C102.175 62.816 102.083 62.46 101.899 62.164C101.715 61.86 101.463 61.632 101.143 61.48C100.831 61.32 100.483 61.24 100.099 61.24C99.5469 61.24 99.0749 61.416 98.6829 61.768C98.2989 62.12 98.0789 62.608 98.0229 63.232H102.175ZM116.428 58.696V67H115.336V60.808L112.576 67H111.808L109.036 60.796V67H107.944V58.696H109.12L112.192 65.56L115.264 58.696H116.428ZM123.943 60.424L119.983 70.096H118.855L120.151 66.928L117.499 60.424H118.711L120.775 65.752L122.815 60.424H123.943ZM130.892 67.084C130.34 67.084 129.844 66.988 129.404 66.796C128.972 66.596 128.632 66.324 128.384 65.98C128.136 65.628 128.008 65.224 128 64.768H129.164C129.204 65.16 129.364 65.492 129.644 65.764C129.932 66.028 130.348 66.16 130.892 66.16C131.412 66.16 131.82 66.032 132.116 65.776C132.42 65.512 132.572 65.176 132.572 64.768C132.572 64.448 132.484 64.188 132.308 63.988C132.132 63.788 131.912 63.636 131.648 63.532C131.384 63.428 131.028 63.316 130.58 63.196C130.028 63.052 129.584 62.908 129.248 62.764C128.92 62.62 128.636 62.396 128.396 62.092C128.164 61.78 128.048 61.364 128.048 60.844C128.048 60.388 128.164 59.984 128.396 59.632C128.628 59.28 128.952 59.008 129.368 58.816C129.792 58.624 130.276 58.528 130.82 58.528C131.604 58.528 132.244 58.724 132.74 59.116C133.244 59.508 133.528 60.028 133.592 60.676H132.392C132.352 60.356 132.184 60.076 131.888 59.836C131.592 59.588 131.2 59.464 130.712 59.464C130.256 59.464 129.884 59.584 129.596 59.824C129.308 60.056 129.164 60.384 129.164 60.808C129.164 61.112 129.248 61.36 129.416 61.552C129.592 61.744 129.804 61.892 130.052 61.996C130.308 62.092 130.664 62.204 131.12 62.332C131.672 62.484 132.116 62.636 132.452 62.788C132.788 62.932 133.076 63.16 133.316 63.472C133.556 63.776 133.676 64.192 133.676 64.72C133.676 65.128 133.568 65.512 133.352 65.872C133.136 66.232 132.816 66.524 132.392 66.748C131.968 66.972 131.468 67.084 130.892 67.084ZM136.615 61.324V65.2C136.615 65.52 136.683 65.748 136.819 65.884C136.955 66.012 137.191 66.076 137.527 66.076H138.331V67H137.347C136.739 67 136.283 66.86 135.979 66.58C135.675 66.3 135.523 65.84 135.523 65.2V61.324H134.671V60.424H135.523V58.768H136.615V60.424H138.331V61.324H136.615ZM145.318 60.424L141.358 70.096H140.23L141.526 66.928L138.874 60.424H140.086L142.15 65.752L144.19 60.424H145.318ZM147.508 58.12V67H146.416V58.12H147.508ZM155.369 63.46C155.369 63.668 155.357 63.888 155.333 64.12H150.077C150.117 64.768 150.337 65.276 150.737 65.644C151.145 66.004 151.637 66.184 152.213 66.184C152.685 66.184 153.077 66.076 153.389 65.86C153.709 65.636 153.933 65.34 154.061 64.972H155.237C155.061 65.604 154.709 66.12 154.181 66.52C153.653 66.912 152.997 67.108 152.213 67.108C151.589 67.108 151.029 66.968 150.533 66.688C150.045 66.408 149.661 66.012 149.381 65.5C149.101 64.98 148.961 64.38 148.961 63.7C148.961 63.02 149.097 62.424 149.369 61.912C149.641 61.4 150.021 61.008 150.509 60.736C151.005 60.456 151.573 60.316 152.213 60.316C152.837 60.316 153.389 60.452 153.869 60.724C154.349 60.996 154.717 61.372 154.973 61.852C155.237 62.324 155.369 62.86 155.369 63.46ZM154.241 63.232C154.241 62.816 154.149 62.46 153.965 62.164C153.781 61.86 153.529 61.632 153.209 61.48C152.897 61.32 152.549 61.24 152.165 61.24C151.613 61.24 151.141 61.416 150.749 61.768C150.365 62.12 150.145 62.608 150.089 63.232H154.241Z" fill="white"/>
</svg>
